<svg width="152" height="157" viewBox="0 0 152 157" fill="none" xmlns="http://www.w3.org/2000/svg">
<g filter="url(#filter0_d_1101_6928)">
<path d="M52.1598 27.7841C56.9127 27.788 61.5391 26.2526 65.3465 23.4077L71.841 18.555C74.2666 16.8561 77.4962 16.8561 79.9218 18.555L86.8347 23.5683C90.567 26.2749 95.0552 27.7406 99.6655 27.7584L105.161 27.7796C110.606 27.7796 115.021 32.1938 115.021 37.6389C115.021 42.6058 117.219 47.3182 121.024 50.5103L121.26 50.7083C121.739 51.1097 122.015 51.7024 122.015 52.327V108.107C122.015 111.997 118.862 115.149 114.973 115.149H37.0267C33.1376 115.149 29.9844 111.997 29.9844 108.107L29.9878 52.3268C29.9878 51.7023 30.2643 51.1098 30.7423 50.7084L30.9738 50.5142C34.7802 47.321 36.9786 42.6073 36.9786 37.6389C36.9786 32.1938 41.3924 27.7796 46.8379 27.7796L52.1598 27.7841Z" fill="#FF0000" fill-opacity="0.01"/>
</g>
<mask id="mask0_1101_6928" style="mask-type:alpha" maskUnits="userSpaceOnUse" x="29" y="14" width="94" height="102">
<path d="M58.0746 27.7796L71.9592 16.1321C74.3848 14.4332 77.6144 14.4332 80.04 16.1321L93.9256 27.7796H105.161C110.606 27.7796 115.021 32.1938 115.021 37.6389V45.4746L121.26 50.7083C121.739 51.1097 122.015 51.7023 122.015 52.327V108.107C122.015 111.997 118.862 115.149 114.973 115.149H37.0267C33.1376 115.149 29.9844 111.997 29.9844 108.107L29.9878 52.3268C29.9878 51.7023 30.2643 51.1098 30.7423 50.7084L36.9786 45.4768V37.6389C36.9786 32.1938 41.3924 27.7796 46.8379 27.7796H58.0746Z" fill="#EBE9FF"/>
</mask>
<g mask="url(#mask0_1101_6928)">
<path d="M69.7104 19.0912L33.1119 48.8053C31.1356 50.4099 29.9879 52.8198 29.9877 55.3655L29.9847 108.107C29.9847 111.997 33.1376 115.15 37.027 115.15H114.973C118.863 115.15 122.015 111.997 122.015 108.107V55.3756C122.015 52.8242 120.863 50.4093 118.879 48.8048L82.1247 19.0795C78.5032 16.1506 73.3262 16.1555 69.7104 19.0912Z" fill="#AFA8FF"/>
<path d="M105.162 27.7797C110.607 27.7797 115.021 32.1938 115.021 37.6389L115.021 113.741C115.021 114.519 114.39 115.149 113.613 115.149L38.3873 115.149C37.6095 115.149 36.9789 114.519 36.9789 113.741L36.9789 37.6389C36.9789 32.1938 41.393 27.7797 46.8382 27.7797L105.162 27.7797Z" fill="#F9F9FF"/>
<rect x="47.6082" y="61.69" width="44.4953" height="6.42546" rx="3.21273" fill="#BCB6FF"/>
<rect x="47.608" y="39.8336" width="44.0601" height="6.42546" rx="3.21273" fill="#BCB6FF"/>
<rect x="47.6082" y="50.7618" width="33.4123" height="6.42546" rx="3.21273" fill="#BCB6FF"/>
<path d="M65.4274 83.0386L29.5634 54.0962L29.8124 112.265L65.4274 83.0386Z" fill="#8277FF"/>
<path d="M86.7559 83.5484L123.087 54.5143L122.583 109.838L86.7559 83.5484Z" fill="#8277FF"/>
<path d="M14.7674 113.389L68.0568 76.0641C72.9079 72.6663 79.3663 72.6663 84.2174 76.0641L148.481 121.076C149.608 121.865 149.049 123.638 147.673 123.638L17.9995 123.638C12.492 123.638 10.2564 116.549 14.7674 113.389Z" fill="#4A3AFF"/>
</g>
<defs>
<filter id="filter0_d_1101_6928" x="0.905666" y="0.175699" width="150.188" height="156.026" filterUnits="userSpaceOnUse" color-interpolation-filters="sRGB">
<feFlood flood-opacity="0" result="BackgroundImageFix"/>
<feColorMatrix in="SourceAlpha" type="matrix" values="0 0 0 0 0 0 0 0 0 0 0 0 0 0 0 0 0 0 127 0" result="hardAlpha"/>
<feOffset dy="11.9736"/>
<feGaussianBlur stdDeviation="14.5394"/>
<feColorMatrix type="matrix" values="0 0 0 0 0.290196 0 0 0 0 0.227451 0 0 0 0 1 0 0 0 0.15 0"/>
<feBlend mode="normal" in2="BackgroundImageFix" result="effect1_dropShadow_1101_6928"/>
<feBlend mode="normal" in="SourceGraphic" in2="effect1_dropShadow_1101_6928" result="shape"/>
</filter>
</defs>
</svg>
